:FULLY-SPECIFIED
:FORCE-ALL-JOINTS-BE-3DOF
:DEGREES
204
root -2.89834 16.3096 -36.1129 3.76868 0.66911 -2.9246
lfemur -23.9002 6.72541 -8.17382
ltibia 48.6728 -0 0
lfoot -23.8105 0.398113 3.1841e-06
ltoes -9.81311 0 0
rfemur -23.8447 -7.56415 14.6549
rtibia 50.7488 -0 0
rfoot -27.644 2.06482 -2.20305e-05
rtoes -8.29382 0 0
lowerback 7.29131 1.95374 -1.69565
upperback -3.74773 2.53866 1.30361
thorax -8.18527 1.37379 1.96455
lowerneck -3.43449 -3.91962 -6.54034
upperneck 6.90313 -5.29193 6.02511
head 3.25484 -2.60532 2.95808
lclavicle -1.30647e-14 4.96962e-16 0
lhumerus -26.5504 -1.8885 88.793
lradius 24.3179 -0 0
lwrist -31.374 0 0
lhand -28.2296 30.1145 1.59028e-15
lfingers 7.12502 -0 0
lthumb -1.6077 60.0882 9.93923e-17
rclavicle -1.30647e-14 4.96962e-16 0
rhumerus -32.2226 2.00128 -79.9353
rradius 30.4532 -0 0
rwrist 3.12415 0 0
rhand -20.0827 -26.8213 -7.95139e-16
rfingers 7.12502 -0 0
rthumb 6.25995 -56.7088 -3.97569e-16
205
root -2.89986 16.3073 -36.1118 3.76868 0.66911 -2.9246
lfemur -23.9045 6.72837 -8.17086
ltibia 48.6817 -0 0
lfoot -23.8157 0.397777 5.44959e-07
ltoes -9.81694 0 0
rfemur -23.8485 -7.5688 14.6572
rtibia 50.7575 -0 0
rfoot -27.6497 2.06694 -3.77053e-06
rtoes -8.29546 0 0
lowerback 7.29131 1.95374 -1.69565
upperback -3.74773 2.53866 1.30361
thorax -8.18527 1.37379 1.96455
lowerneck -3.43602 -3.91994 -6.54011
upperneck 6.9053 -5.29236 6.02499
head 3.25484 -2.60532 2.95808
lclavicle -1.30647e-14 4.96962e-16 0
lhumerus -26.5489 -1.89002 88.794
lradius 24.3179 -0 0
lwrist -31.374 0 0
lhand -28.2296 30.1145 1.59028e-15
lfingers 7.12502 -0 0
lthumb -1.6077 60.0882 9.93923e-17
rclavicle -1.30647e-14 4.96962e-16 0
rhumerus -32.2201 2.00334 -79.938
rradius 30.4557 -0 0
rwrist 3.12415 0 0
rhand -20.0827 -26.8213 -7.95139e-16
rfingers 7.12502 -0 0
rthumb 6.25995 -56.7088 -3.97569e-16
206
root -2.90138 16.305 -36.1106 3.76868 0.66911 -2.9246
lfemur -23.9054 6.72898 -8.17025
ltibia 48.6848 0 0
lfoot -23.8168 0.397708 0
ltoes -9.81773 0 0
rfemur -23.8493 -7.56976 14.6577
rtibia 50.7605 0 0
rfoot -27.6509 2.06737 0
rtoes -8.29546 0 0
lowerback 7.29131 1.95374 -1.69565
upperback -3.74773 2.53866 1.30361
thorax -8.18527 1.37379 1.96455
lowerneck -3.43602 -3.91994 -6.54011
upperneck 6.9053 -5.29236 6.02499
head 3.25484 -2.60532 2.95808
lclavicle -1.30647e-14 4.96962e-16 0
lhumerus -26.5489 -1.89002 88.794
lradius 24.3179 0 0
lwrist -31.374 0 0
lhand -28.2296 30.1145 0
lfingers 7.12502 0 0
lthumb -1.6077 60.0882 0
rclavicle -1.30647e-14 4.96962e-16 0
rhumerus -32.2196 2.00376 -79.9386
rradius 30.4557 0 0
rwrist 3.12415 0 0
rhand -20.0827 -26.8213 0
rfingers 7.12502 0 0
rthumb 6.25995 -56.7088 0
207
root -2.90104 16.303 -36.1104 3.75318 0.660703 -2.91636
lfemur -23.9148 6.73507 -8.17766
ltibia 48.6871 -0 0
lfoot -23.8502 0.41078 -7.53341e-05
ltoes -9.84479 0 0
rfemur -23.8661 -7.59013 14.6408
rtibia 50.7629 -0 0
rfoot -27.6848 2.08528 -0.000104789
rtoes -8.29395 0 0
lowerback 7.31146 1.95346 -1.69834
upperback -3.73976 2.53795 1.30687
thorax -8.18868 1.3736 1.96913
lowerneck -3.44015 -3.91585 -6.53567
upperneck 6.90874 -5.28668 6.0205
head 3.25619 -2.60247 2.95603
lclavicle 8.24413e-15 1.54058e-15 0
lhumerus -26.5617 -1.89976 88.8013
lradius 24.3264 -0 0
lwrist -31.3389 0 0
lhand -28.2299 30.129 -6.62812e-07
lfingers 7.12502 -0 0
lthumb -1.60796 60.1027 -6.39702e-07
rclavicle 8.24413e-15 1.54058e-15 0
rhumerus -32.2108 1.99331 -79.9104
rradius 30.4453 -0 0
rwrist 3.14865 0 0
rhand -20.066 -26.8008 5.91701e-05
rfingers 7.12502 -0 0
rthumb 6.2761 -56.6878 5.84952e-05
208
root -2.9007 16.3011 -36.1102 3.73806 0.652507 -2.90831
lfemur -23.924 6.74102 -8.18488
ltibia 48.6937 -0 0
lfoot -23.8216 0.399582 -1.12659e-05
ltoes -9.87118 0 0
rfemur -23.8517 -7.57268 14.6553
rtibia 50.77 -0 0
rfoot -27.6558 2.06994 -1.56708e-05
rtoes -8.29248 0 0
lowerback 7.33112 1.95318 -1.70096
upperback -3.73199 2.53726 1.31006
thorax -8.19201 1.37341 1.9736
lowerneck -3.45228 -3.90385 -6.52265
upperneck 6.91885 -5.27003 6.00733
head 3.26016 -2.59413 2.95002
lclavicle 8.24413e-15 1.54058e-15 0
lhumerus -26.5742 -1.90926 88.8084
lradius 24.3348 -0 0
lwrist -31.369 0 0
lhand -28.2301 30.1432 -1.24461e-06
lfingers 7.12502 -0 0
lthumb -1.60821 60.1168 -1.20122e-06
rclavicle 8.24413e-15 1.54058e-15 0
rhumerus -32.2183 2.00226 -79.9346
rradius 30.4351 -0 0
rwrist 3.17255 0 0
rhand -20.0497 -26.7808 0.000111108
rfingers 7.12502 -0 0
rthumb 6.29186 -56.6673 0.000109841
209
root -2.90037 16.2991 -36.1099 3.76377 0.666444 -2.92199
lfemur -23.9329 6.74681 -8.19192
ltibia 48.7045 -0 0
lfoot -23.8274 0.401853 -2.47122e-05
ltoes -9.82631 0 0
rfemur -23.8546 -7.57622 14.6523
rtibia 50.7815 -0 0
rfoot -27.6617 2.07305 -3.43744e-05
rtoes -8.29105 0 0
lowerback 7.2977 1.95365 -1.6965
upperback -3.72441 2.53658 1.31316
thorax -8.19525 1.37323 1.97795
lowerneck -3.47198 -3.88433 -6.5015
upperneck 6.93526 -5.24296 5.98592
head 3.26661 -2.58055 2.94026
lclavicle 8.24413e-15 1.54058e-15 0
lhumerus -26.5863 -1.91852 88.8153
lradius 24.3429 -0 0
lwrist -31.3629 0 0
lhand -28.2304 30.157 -1.75025e-06
lfingers 7.12502 -0 0
lthumb -1.60845 60.1306 -1.68923e-06
rclavicle 8.24413e-15 1.54058e-15 0
rhumerus -32.2168 2.00045 -79.9297
rradius 30.4252 -0 0
rwrist 3.13192 0 0
rhand -20.0774 -26.8148 1.94099e-05
rfingers 7.12502 -0 0
rthumb 6.26507 -56.7021 1.91885e-05
210
root -2.90003 16.2971 -36.1097 3.76009 0.664452 -2.92003
lfemur -23.9416 6.75245 -8.19878
ltibia 48.7193 -0 0
lfoot -23.8353 0.404951 -4.26812e-05
ltoes -9.83272 0 0
rfemur -23.8586 -7.58104 14.6484
rtibia 50.7973 -0 0
rfoot -27.6697 2.07729 -5.93689e-05
rtoes -8.28965 0 0
lowerback 7.30248 1.95358 -1.69714
upperback -3.71703 2.53592 1.31618
thorax -8.19841 1.37306 1.98219
lowerneck -3.49883 -3.8577 -6.47266
upperneck 6.95763 -5.20602 5.95674
head 3.27541 -2.56204 2.92694
lclavicle 8.24413e-15 1.54058e-15 0
lhumerus -26.556 -1.89542 88.798
lradius 24.3508 -0 0
lwrist -31.3545 0 0
lhand -28.2297 30.1225 -3.75522e-07
lfingers 7.12502 -0 0
lthumb -1.60784 60.0962 -3.62429e-07
rclavicle 8.24413e-15 1.54058e-15 0
rhumerus -32.2147 1.99797 -79.923
rradius 30.4156 -0 0
rwrist 3.13773 0 0
rhand -20.0734 -26.8099 3.35233e-05
rfingers 7.12502 -0 0
rthumb 6.2689 -56.6972 3.3141e-05
